<?xml version="1.0" encoding="utf-8"?>
<!-- Generator: Adobe Illustrator 16.0.4, SVG Export Plug-In . SVG Version: 6.00 Build 0)  -->
<!DOCTYPE svg PUBLIC "-//W3C//DTD SVG 1.1//EN" "http://www.w3.org/Graphics/SVG/1.1/DTD/svg11.dtd">
<svg version="1.1" xmlns="http://www.w3.org/2000/svg" xmlns:xlink="http://www.w3.org/1999/xlink" x="0px" y="0px"
	 width="177.173px" height="198.551px" viewBox="0 0 177.173 198.551" enable-background="new 0 0 177.173 198.551"
	 xml:space="preserve">
<g id="green">
	<path fill="#D5E835" d="M88.586,198.551c-3.417,0-6.644-0.82-9.331-2.371L9.33,155.808C3.836,152.636,0,145.99,0,139.647V58.903
		c0-6.343,3.836-12.988,9.33-16.16L79.256,2.371C81.942,0.82,85.168,0,88.586,0s6.644,0.82,9.331,2.371l69.926,40.372
		c5.494,3.172,9.33,9.817,9.33,16.16v80.744c0,6.343-3.836,12.988-9.33,16.16L97.916,196.18
		C95.23,197.731,92.003,198.551,88.586,198.551z"/>
</g>
<g id="white">
	<path fill="#FFFFFF" d="M10,58.903c0-2.75,1.949-6.125,4.33-7.5l69.926-40.372c2.381-1.375,6.279-1.375,8.66,0l69.927,40.372
		c2.381,1.375,4.33,4.75,4.33,7.5v80.744c0,2.75-1.949,6.125-4.33,7.5L92.916,187.52c-2.381,1.375-6.279,1.375-8.66,0L14.33,147.147
		c-2.381-1.375-4.33-4.75-4.33-7.5V58.903z"/>
</g>
<g id="leaf">
	<path fill="#D5E835" d="M111.398,78.911l-22.812,50.127L65.773,78.911l22.812-57.932L111.398,78.911z M144.705,79.581L108.68,87.07
		l-19.03,42.548l40.114-15.921L144.705,79.581z M150.133,127.749l-25.914-10.493L89.948,130.59l30.756,13.161L150.133,127.749z
		 M123.939,159.359l-7.374-16.438L89.299,131.3l9.772,16.379L123.939,159.359z M47.334,113.697l40.114,15.921L68.418,87.07
		l-36.025-7.489L47.334,113.697z M56.394,143.751l30.756-13.161l-34.271-13.334l-25.914,10.493L56.394,143.751z M78.026,147.679
		l9.772-16.379l-27.267,11.621l-7.374,16.438L78.026,147.679z"/>
</g>
<g id="shadow">
	<path opacity="0.05" d="M79.256,2.371L9.33,42.743C3.836,45.915,0,52.561,0,58.903v80.744c0,6.343,3.836,12.988,9.33,16.16
		l69.925,40.372c2.687,1.551,5.913,2.371,9.331,2.371V0C85.168,0,81.942,0.82,79.256,2.371z"/>
</g>
</svg>
